<svg xmlns="http://www.w3.org/2000/svg" xmlns:xlink="http://www.w3.org/1999/xlink" width="68" zoomAndPan="magnify" viewBox="0 0 50.879997 59.249999" height="79" preserveAspectRatio="xMidYMid meet" version="1.0"><defs><clipPath id="fed4dabbb0"><path d="M 31 12 L 50.503906 12 L 50.503906 23 L 31 23 Z M 31 12 " clip-rule="nonzero"/></clipPath><clipPath id="86a1643b0c"><path d="M 0.257812 12 L 50.503906 12 L 50.503906 53 L 0.257812 53 Z M 0.257812 12 " clip-rule="nonzero"/></clipPath><clipPath id="d269b0f0d7"><path d="M 0.257812 0 L 50.503906 0 L 50.503906 27 L 0.257812 27 Z M 0.257812 0 " clip-rule="nonzero"/></clipPath><clipPath id="28579d2f06"><path d="M 0.257812 54 L 4 54 L 4 58.484375 L 0.257812 58.484375 Z M 0.257812 54 " clip-rule="nonzero"/></clipPath><clipPath id="eae8e9d9e6"><path d="M 3 54 L 7 54 L 7 58.484375 L 3 58.484375 Z M 3 54 " clip-rule="nonzero"/></clipPath><clipPath id="77d952d4e9"><path d="M 6 54 L 11 54 L 11 58.484375 L 6 58.484375 Z M 6 54 " clip-rule="nonzero"/></clipPath><clipPath id="7ad2842ef6"><path d="M 10 54 L 11 54 L 11 58.484375 L 10 58.484375 Z M 10 54 " clip-rule="nonzero"/></clipPath><clipPath id="a435a59f31"><path d="M 12 54 L 16 54 L 16 58.484375 L 12 58.484375 Z M 12 54 " clip-rule="nonzero"/></clipPath><clipPath id="0c0f2937de"><path d="M 16 54 L 20 54 L 20 58.484375 L 16 58.484375 Z M 16 54 " clip-rule="nonzero"/></clipPath><clipPath id="9600834f58"><path d="M 19 54 L 24 54 L 24 58.484375 L 19 58.484375 Z M 19 54 " clip-rule="nonzero"/></clipPath><clipPath id="2bcf74f0e2"><path d="M 23 54 L 28 54 L 28 58.484375 L 23 58.484375 Z M 23 54 " clip-rule="nonzero"/></clipPath><clipPath id="da29b7ed3f"><path d="M 28 54 L 29 54 L 29 58.484375 L 28 58.484375 Z M 28 54 " clip-rule="nonzero"/></clipPath><clipPath id="867e1d5bd6"><path d="M 29 54 L 32 54 L 32 58.484375 L 29 58.484375 Z M 29 54 " clip-rule="nonzero"/></clipPath><clipPath id="4c0f7b2f11"><path d="M 33 54 L 37 54 L 37 58.484375 L 33 58.484375 Z M 33 54 " clip-rule="nonzero"/></clipPath><clipPath id="2f52b80b36"><path d="M 36 54 L 41 54 L 41 58.484375 L 36 58.484375 Z M 36 54 " clip-rule="nonzero"/></clipPath><clipPath id="9465eaae78"><path d="M 40 54 L 44 54 L 44 58.484375 L 40 58.484375 Z M 40 54 " clip-rule="nonzero"/></clipPath><clipPath id="50c670971e"><path d="M 44 54 L 48 54 L 48 58.484375 L 44 58.484375 Z M 44 54 " clip-rule="nonzero"/></clipPath><clipPath id="cbdb3b82d9"><path d="M 47 54 L 50.503906 54 L 50.503906 58.484375 L 47 58.484375 Z M 47 54 " clip-rule="nonzero"/></clipPath><clipPath id="62e4533986"><path d="M 31 12 L 50.503906 12 L 50.503906 23 L 31 23 Z M 31 12 " clip-rule="nonzero"/></clipPath><clipPath id="2e179bff41"><path d="M 0.257812 12 L 50.503906 12 L 50.503906 52.585938 L 0.257812 52.585938 Z M 0.257812 12 " clip-rule="nonzero"/></clipPath><clipPath id="ab6ae63c5c"><path d="M 0.257812 0 L 50.503906 0 L 50.503906 27 L 0.257812 27 Z M 0.257812 0 " clip-rule="nonzero"/></clipPath></defs><g clip-path="url(#fed4dabbb0)"><path fill="#cc541f" d="M 47.25 22.820312 C 49.078125 22.820312 50.550781 20.578125 50.550781 17.804688 C 50.550781 15.035156 49.078125 12.789062 47.25 12.789062 L 31.75 12.789062 L 31.75 22.820312 Z M 47.25 22.820312 " fill-opacity="1" fill-rule="nonzero"/></g><g clip-path="url(#86a1643b0c)"><path fill="#cc541f" d="M 47.628906 31.316406 C 47.238281 31.035156 13.871094 26.707031 10.03125 26.214844 C 9.800781 26.191406 9.664062 26.042969 9.664062 25.53125 L 9.664062 23.566406 C 9.664062 22.824219 10.179688 22.824219 10.179688 22.824219 L 19.363281 22.824219 L 19.363281 12.789062 L 5.101562 12.789062 C 3.242188 12.789062 1.152344 13.84375 0.664062 15.691406 C 0.363281 16.664062 0.234375 17.65625 0.28125 18.667969 L 0.28125 27.644531 C 0.28125 30.894531 1.925781 32.78125 4.980469 33.53125 C 5.015625 33.542969 11.734375 34.390625 19.375 35.359375 L 31.738281 36.941406 C 35.992188 37.492188 39.425781 37.921875 40.6875 38.082031 C 41.019531 38.128906 41.214844 38.324219 41.214844 38.839844 L 41.214844 41.550781 C 41.214844 42.1875 40.761719 42.128906 40.761719 42.128906 L 31.738281 42.128906 L 31.738281 42.703125 C 31.730469 43.621094 31.621094 44.53125 31.417969 45.425781 C 31.105469 47.015625 30.355469 48.363281 29.164062 49.460938 C 28.121094 50.34375 26.921875 50.765625 25.558594 50.734375 L 25.496094 50.734375 C 24.8125 50.742188 24.15625 50.617188 23.523438 50.367188 C 22.886719 50.117188 22.324219 49.757812 21.828125 49.289062 C 21.003906 48.472656 20.410156 47.511719 20.050781 46.40625 C 19.628906 45.183594 19.402344 43.925781 19.375 42.628906 L 19.375 42.128906 L 3.914062 42.128906 C 2.085938 42.128906 0.601562 44.371094 0.601562 47.128906 C 0.601562 49.902344 2.085938 52.160156 3.914062 52.160156 L 45.972656 52.160156 C 48.183594 52.160156 50.546875 49.914062 50.546875 47.128906 C 50.546875 47.054688 50.535156 46.996094 50.535156 46.921875 C 50.5625 46.640625 50.597656 46.371094 50.597656 46.074219 L 50.597656 36.898438 C 50.597656 34.359375 50.265625 32.199219 47.628906 31.316406 Z M 47.628906 31.316406 " fill-opacity="1" fill-rule="nonzero"/></g><path fill="#008243" d="M 29.996094 38.355469 L 29.996094 42.882812 C 29.996094 42.882812 30.167969 48.558594 25.558594 48.558594 C 21.140625 48.558594 21.105469 42.882812 21.105469 42.882812 L 21.105469 37.402344 Z M 29.996094 38.355469 " fill-opacity="1" fill-rule="nonzero"/><g clip-path="url(#d269b0f0d7)"><path fill="#008243" d="M 29.996094 26.773438 L 29.996094 10.65625 L 46.796875 10.65625 C 46.796875 10.65625 50.558594 11.109375 50.558594 5.160156 C 50.558594 -0.171875 46.796875 -0.0273438 46.796875 -0.0273438 L 4.316406 -0.0273438 C 4.316406 -0.0273438 0.550781 -0.175781 0.550781 5.160156 C 0.550781 11.109375 4.316406 10.65625 4.316406 10.65625 L 21.117188 10.65625 L 21.117188 25.554688 Z M 29.996094 26.773438 " fill-opacity="1" fill-rule="nonzero"/></g><g clip-path="url(#28579d2f06)"><path fill="#ffffff" d="M 1.484375 58.46875 L 1.484375 55.378906 L 0.332031 55.378906 L 0.332031 54.960938 L 3.117188 54.960938 L 3.117188 55.378906 L 1.949219 55.378906 L 1.949219 58.480469 L 1.484375 58.480469 Z M 1.484375 58.46875 " fill-opacity="1" fill-rule="nonzero"/></g><g clip-path="url(#eae8e9d9e6)"><path fill="#ffffff" d="M 3.59375 58.46875 L 3.59375 54.949219 L 4.058594 54.949219 L 4.058594 56.394531 L 5.886719 56.394531 L 5.886719 54.949219 L 6.351562 54.949219 L 6.351562 58.46875 L 5.886719 58.46875 L 5.886719 56.808594 L 4.058594 56.808594 L 4.058594 58.464844 Z M 3.59375 58.46875 " fill-opacity="1" fill-rule="nonzero"/></g><g clip-path="url(#77d952d4e9)"><path fill="#ffffff" d="M 6.746094 58.46875 L 8.09375 54.949219 L 8.597656 54.949219 L 10.03125 58.46875 L 9.503906 58.46875 L 9.101562 57.402344 L 7.628906 57.402344 L 7.234375 58.46875 Z M 7.761719 57.019531 L 8.953125 57.019531 L 8.585938 56.054688 C 8.476562 55.753906 8.390625 55.515625 8.339844 55.328125 C 8.292969 55.558594 8.230469 55.785156 8.144531 56.003906 Z M 7.761719 57.019531 " fill-opacity="1" fill-rule="nonzero"/></g><g clip-path="url(#7ad2842ef6)"><path fill="#ffffff" d="M 10.484375 54.949219 L 10.953125 54.949219 L 10.953125 58.46875 L 10.484375 58.46875 Z M 10.484375 54.949219 " fill-opacity="1" fill-rule="nonzero"/></g><g clip-path="url(#a435a59f31)"><path fill="#ffffff" d="M 12.960938 57.339844 L 13.402344 57.304688 C 13.421875 57.558594 13.53125 57.761719 13.734375 57.917969 C 13.945312 58.058594 14.179688 58.125 14.433594 58.113281 C 14.671875 58.132812 14.886719 58.074219 15.082031 57.941406 C 15.226562 57.839844 15.300781 57.699219 15.308594 57.523438 C 15.3125 57.355469 15.242188 57.230469 15.097656 57.144531 C 14.820312 57.007812 14.53125 56.910156 14.226562 56.847656 C 13.886719 56.800781 13.582031 56.667969 13.320312 56.441406 C 13.160156 56.285156 13.082031 56.089844 13.085938 55.867188 C 13.070312 55.554688 13.191406 55.3125 13.453125 55.140625 C 13.742188 54.96875 14.054688 54.890625 14.386719 54.898438 C 14.722656 54.90625 15.027344 55.003906 15.308594 55.191406 C 15.53125 55.390625 15.644531 55.636719 15.648438 55.9375 L 15.207031 55.972656 C 15.160156 55.519531 14.878906 55.296875 14.351562 55.296875 C 13.8125 55.296875 13.542969 55.46875 13.542969 55.824219 C 13.542969 55.964844 13.597656 56.074219 13.714844 56.15625 C 13.925781 56.273438 14.148438 56.351562 14.386719 56.390625 C 14.644531 56.445312 14.898438 56.511719 15.148438 56.597656 C 15.324219 56.667969 15.472656 56.777344 15.589844 56.929688 C 15.714844 57.085938 15.769531 57.265625 15.761719 57.46875 C 15.777344 57.796875 15.648438 58.054688 15.378906 58.242188 C 15.105469 58.4375 14.796875 58.53125 14.460938 58.523438 C 14.042969 58.558594 13.671875 58.445312 13.34375 58.179688 C 13.09375 57.957031 12.964844 57.675781 12.960938 57.339844 Z M 12.960938 57.339844 " fill-opacity="1" fill-rule="nonzero"/></g><g clip-path="url(#0c0f2937de)"><path fill="#ffffff" d="M 18.578125 54.960938 L 19.042969 54.960938 L 19.042969 56.984375 C 19.046875 57.246094 19.015625 57.503906 18.945312 57.757812 C 18.878906 57.992188 18.738281 58.179688 18.53125 58.308594 C 18.261719 58.472656 17.972656 58.546875 17.660156 58.53125 C 17.246094 58.570312 16.890625 58.445312 16.59375 58.164062 C 16.332031 57.8125 16.222656 57.421875 16.261719 56.984375 L 16.261719 54.960938 L 16.726562 54.960938 L 16.726562 56.984375 C 16.726562 57.183594 16.746094 57.378906 16.789062 57.574219 C 16.824219 57.742188 16.914062 57.871094 17.058594 57.964844 C 17.230469 58.074219 17.417969 58.125 17.621094 58.113281 C 17.898438 58.140625 18.136719 58.0625 18.34375 57.878906 C 18.527344 57.609375 18.601562 57.3125 18.570312 56.988281 L 18.570312 54.960938 Z M 18.578125 54.960938 " fill-opacity="1" fill-rule="nonzero"/></g><g clip-path="url(#9600834f58)"><path fill="#ffffff" d="M 19.804688 58.46875 L 19.804688 54.949219 L 20.503906 54.949219 L 21.335938 57.4375 L 21.507812 57.964844 C 21.558594 57.816406 21.621094 57.632812 21.691406 57.402344 L 22.539062 54.960938 L 23.164062 54.960938 L 23.164062 58.480469 L 22.722656 58.480469 L 22.722656 55.535156 L 21.707031 58.480469 L 21.265625 58.480469 L 20.246094 55.488281 L 20.246094 58.480469 L 19.804688 58.480469 Z M 19.804688 58.46875 " fill-opacity="1" fill-rule="nonzero"/></g><g clip-path="url(#2bcf74f0e2)"><path fill="#ffffff" d="M 23.886719 58.46875 L 23.886719 54.949219 L 24.585938 54.949219 L 25.421875 57.4375 L 25.59375 57.964844 C 25.640625 57.816406 25.703125 57.632812 25.777344 57.402344 L 26.621094 54.960938 L 27.246094 54.960938 L 27.246094 58.480469 L 26.792969 58.480469 L 26.792969 55.535156 L 25.777344 58.480469 L 25.359375 58.480469 L 24.34375 55.488281 L 24.34375 58.480469 L 23.886719 58.480469 Z M 23.886719 58.46875 " fill-opacity="1" fill-rule="nonzero"/></g><g clip-path="url(#da29b7ed3f)"><path fill="#ffffff" d="M 28.070312 54.949219 L 28.535156 54.949219 L 28.535156 58.46875 L 28.070312 58.46875 Z M 28.070312 54.949219 " fill-opacity="1" fill-rule="nonzero"/></g><g clip-path="url(#867e1d5bd6)"><path fill="#ffffff" d="M 30.253906 58.46875 L 30.253906 55.378906 L 29.101562 55.378906 L 29.101562 54.960938 L 31.882812 54.960938 L 31.882812 55.378906 L 30.71875 55.378906 L 30.71875 58.480469 L 30.253906 58.480469 Z M 30.253906 58.46875 " fill-opacity="1" fill-rule="nonzero"/></g><g clip-path="url(#4c0f7b2f11)"><path fill="#ffffff" d="M 34.828125 57.09375 L 34.828125 56.679688 L 36.308594 56.679688 L 36.308594 57.976562 C 35.890625 58.339844 35.402344 58.523438 34.851562 58.53125 C 34.34375 58.554688 33.914062 58.394531 33.550781 58.039062 C 33.195312 57.671875 33.035156 57.234375 33.058594 56.726562 C 33.046875 56.238281 33.191406 55.804688 33.5 55.425781 C 33.855469 55.035156 34.296875 54.859375 34.824219 54.902344 C 34.988281 54.882812 35.148438 54.890625 35.308594 54.933594 C 35.46875 54.976562 35.613281 55.042969 35.746094 55.140625 C 35.878906 55.238281 35.992188 55.355469 36.082031 55.492188 C 36.167969 55.632812 36.230469 55.78125 36.261719 55.941406 L 35.84375 56.054688 C 35.792969 55.816406 35.667969 55.628906 35.476562 55.484375 C 35.285156 55.339844 35.066406 55.277344 34.828125 55.292969 C 34.457031 55.269531 34.140625 55.394531 33.882812 55.660156 C 33.636719 55.960938 33.527344 56.304688 33.550781 56.691406 C 33.511719 57.105469 33.636719 57.464844 33.917969 57.769531 C 34.179688 58.003906 34.488281 58.113281 34.839844 58.101562 C 35.230469 58.113281 35.574219 57.988281 35.867188 57.734375 L 35.867188 57.09375 Z M 34.828125 57.09375 " fill-opacity="1" fill-rule="nonzero"/></g><g clip-path="url(#2f52b80b36)"><path fill="#ffffff" d="M 36.996094 58.46875 L 36.996094 54.949219 L 38.554688 54.949219 C 38.765625 54.945312 38.972656 54.96875 39.179688 55.011719 C 39.363281 55.0625 39.507812 55.164062 39.621094 55.316406 C 39.75 55.492188 39.8125 55.6875 39.804688 55.90625 C 39.804688 56.457031 39.472656 56.777344 38.8125 56.863281 C 39.097656 57.007812 39.316406 57.222656 39.472656 57.5 L 40.085938 58.457031 L 39.5 58.457031 L 39.03125 57.71875 C 38.914062 57.519531 38.78125 57.332031 38.628906 57.15625 C 38.554688 57.066406 38.464844 56.996094 38.359375 56.949219 C 38.238281 56.90625 38.117188 56.890625 37.992188 56.898438 L 37.449219 56.898438 L 37.449219 58.457031 L 36.996094 58.457031 Z M 37.464844 56.507812 L 38.46875 56.507812 C 39.046875 56.507812 39.339844 56.308594 39.339844 55.917969 C 39.339844 55.535156 39.09375 55.339844 38.582031 55.339844 L 37.464844 55.339844 Z M 37.464844 56.507812 " fill-opacity="1" fill-rule="nonzero"/></g><g clip-path="url(#9465eaae78)"><path fill="#ffffff" d="M 40.394531 56.765625 C 40.386719 56.417969 40.457031 56.085938 40.601562 55.769531 C 40.730469 55.5 40.925781 55.28125 41.179688 55.121094 C 41.453125 54.960938 41.753906 54.882812 42.070312 54.886719 C 42.546875 54.871094 42.949219 55.039062 43.273438 55.390625 C 43.613281 55.765625 43.769531 56.207031 43.738281 56.714844 C 43.777344 57.242188 43.609375 57.699219 43.238281 58.074219 C 42.90625 58.386719 42.515625 58.539062 42.058594 58.53125 C 41.574219 58.546875 41.167969 58.375 40.847656 58.015625 C 40.535156 57.65625 40.382812 57.238281 40.394531 56.765625 Z M 40.871094 56.765625 C 40.859375 57.128906 40.964844 57.457031 41.191406 57.746094 C 41.417969 58.015625 41.710938 58.140625 42.0625 58.125 C 42.441406 58.152344 42.742188 58.011719 42.96875 57.707031 C 43.179688 57.40625 43.28125 57.070312 43.277344 56.703125 C 43.308594 56.300781 43.191406 55.941406 42.933594 55.632812 C 42.703125 55.386719 42.421875 55.269531 42.085938 55.277344 C 41.703125 55.246094 41.394531 55.382812 41.167969 55.691406 C 40.957031 56.019531 40.859375 56.378906 40.871094 56.765625 Z M 40.871094 56.765625 " fill-opacity="1" fill-rule="nonzero"/></g><g clip-path="url(#50c670971e)"><path fill="#ffffff" d="M 46.660156 54.960938 L 47.125 54.960938 L 47.125 56.984375 C 47.128906 57.246094 47.097656 57.503906 47.027344 57.757812 C 46.960938 57.996094 46.820312 58.179688 46.613281 58.308594 C 46.347656 58.472656 46.0625 58.546875 45.753906 58.53125 C 45.34375 58.570312 44.988281 58.449219 44.6875 58.164062 C 44.433594 57.8125 44.328125 57.417969 44.367188 56.988281 L 44.367188 54.960938 L 44.832031 54.960938 L 44.832031 56.984375 C 44.828125 57.183594 44.84375 57.378906 44.882812 57.574219 C 44.917969 57.742188 45.007812 57.871094 45.152344 57.964844 C 45.324219 58.074219 45.511719 58.125 45.714844 58.113281 C 45.992188 58.140625 46.234375 58.0625 46.441406 57.882812 C 46.625 57.609375 46.699219 57.3125 46.664062 56.988281 L 46.664062 54.960938 Z M 46.660156 54.960938 " fill-opacity="1" fill-rule="nonzero"/></g><g clip-path="url(#cbdb3b82d9)"><path fill="#ffffff" d="M 47.898438 58.46875 L 47.898438 54.949219 L 49.222656 54.949219 C 49.464844 54.941406 49.699219 54.96875 49.933594 55.023438 C 50.128906 55.078125 50.285156 55.191406 50.402344 55.355469 C 50.527344 55.539062 50.589844 55.742188 50.585938 55.96875 C 50.585938 56.679688 50.144531 57.035156 49.273438 57.035156 L 48.363281 57.035156 L 48.363281 58.46875 Z M 48.363281 56.628906 L 49.273438 56.628906 C 49.824219 56.628906 50.105469 56.421875 50.105469 55.992188 C 50.109375 55.859375 50.078125 55.734375 50.007812 55.625 C 49.949219 55.53125 49.867188 55.464844 49.761719 55.425781 C 49.601562 55.386719 49.4375 55.367188 49.273438 55.378906 L 48.363281 55.378906 Z M 48.363281 56.628906 " fill-opacity="1" fill-rule="nonzero"/></g><g clip-path="url(#62e4533986)"><path fill="#cc541f" d="M 47.234375 22.828125 C 49.058594 22.828125 50.527344 20.585938 50.527344 17.816406 C 50.527344 15.046875 49.058594 12.804688 47.234375 12.804688 L 31.746094 12.804688 L 31.746094 22.828125 Z M 47.234375 22.828125 " fill-opacity="1" fill-rule="nonzero"/></g><g clip-path="url(#2e179bff41)"><path fill="#cc541f" d="M 47.613281 31.320312 C 47.21875 31.039062 13.878906 26.710938 10.042969 26.222656 C 9.8125 26.195312 9.675781 26.050781 9.675781 25.535156 L 9.675781 23.574219 C 9.675781 22.832031 10.191406 22.832031 10.191406 22.832031 L 19.367188 22.832031 L 19.367188 12.804688 L 5.117188 12.804688 C 3.257812 12.804688 1.171875 13.859375 0.683594 15.707031 C 0.382812 16.675781 0.253906 17.667969 0.300781 18.679688 L 0.300781 27.648438 C 0.300781 30.898438 1.945312 32.78125 4.996094 33.53125 C 5.03125 33.542969 11.746094 34.390625 19.378906 35.355469 L 31.730469 36.9375 C 35.984375 37.488281 39.414062 37.917969 40.675781 38.078125 C 41.007812 38.125 41.203125 38.320312 41.203125 38.835938 L 41.203125 41.542969 C 41.203125 42.179688 40.75 42.121094 40.75 42.121094 L 31.730469 42.121094 L 31.730469 42.695312 C 31.722656 43.613281 31.617188 44.519531 31.414062 45.414062 C 31.101562 47.003906 30.351562 48.347656 29.160156 49.445312 C 28.121094 50.328125 26.917969 50.753906 25.558594 50.722656 L 25.496094 50.722656 C 24.816406 50.726562 24.15625 50.605469 23.523438 50.355469 C 22.890625 50.105469 22.324219 49.746094 21.832031 49.273438 C 21.007812 48.457031 20.414062 47.5 20.054688 46.394531 C 19.632812 45.171875 19.40625 43.914062 19.382812 42.621094 L 19.382812 42.121094 L 3.929688 42.121094 C 2.105469 42.121094 0.621094 44.363281 0.621094 47.117188 C 0.621094 49.886719 2.105469 52.144531 3.929688 52.144531 L 45.957031 52.144531 C 48.164062 52.144531 50.527344 49.902344 50.527344 47.117188 C 50.527344 47.042969 50.515625 46.984375 50.515625 46.910156 C 50.539062 46.628906 50.578125 46.359375 50.578125 46.066406 L 50.578125 36.894531 C 50.578125 34.359375 50.246094 32.203125 47.613281 31.320312 Z M 47.613281 31.320312 " fill-opacity="1" fill-rule="nonzero"/></g><path fill="#008243" d="M 29.992188 38.351562 L 29.992188 42.875 C 29.992188 42.875 30.164062 48.546875 25.558594 48.546875 C 21.144531 48.546875 21.109375 42.875 21.109375 42.875 L 21.109375 37.398438 Z M 29.992188 38.351562 " fill-opacity="1" fill-rule="nonzero"/><g clip-path="url(#ab6ae63c5c)"><path fill="#008243" d="M 29.992188 26.777344 L 29.992188 10.671875 L 46.777344 10.671875 C 46.777344 10.671875 50.539062 11.125 50.539062 5.183594 C 50.539062 -0.148438 46.777344 0 46.777344 0 L 4.332031 0 C 4.332031 0 0.570312 -0.148438 0.570312 5.183594 C 0.570312 11.125 4.332031 10.671875 4.332031 10.671875 L 21.121094 10.671875 L 21.121094 25.558594 Z M 29.992188 26.777344 " fill-opacity="1" fill-rule="nonzero"/></g></svg>