<svg xmlns="http://www.w3.org/2000/svg" viewBox="0 0 67.598 78.67">
  <defs>
    <style>
      .cls-1 {
        fill: #cc541f;
      }

      .cls-2 {
        fill: #008243;
      }
    </style>
  </defs>
  <g id="Logo_Full_color" data-name="Logo Full color" transform="translate(-118.819 -496.88)">
    <g id="Group_251" data-name="Group 251" transform="translate(118.819 496.88)">
      <g id="Group_249" data-name="Group 249" transform="translate(0 17.217)">
        <path id="Path_2114" data-name="Path 2114" class="cls-1" d="M376.325,300.177c2.455,0,4.432-3.015,4.432-6.738s-1.977-6.738-4.432-6.738H355.5v13.477Z" transform="translate(-313.224 -286.7)"/>
        <path id="Path_2115" data-name="Path 2115" class="cls-1" d="M162.511,311.594c-.527-.379-45.356-6.195-50.513-6.854-.313-.033-.494-.231-.494-.923v-2.636c0-1,.692-1,.692-1h12.34V286.7H105.375c-2.5,0-5.305,1.417-5.964,3.9a11.671,11.671,0,0,0-.511,4v12.06c0,4.366,2.208,6.9,6.31,7.908.049.016,9.078,1.153,19.342,2.455l16.607,2.125c5.717.741,10.33,1.318,12.027,1.532.445.066.708.329.708,1.021v3.641c0,.857-.61.774-.61.774H141.159v.774a17.087,17.087,0,0,1-.428,3.658,9.975,9.975,0,0,1-3.031,5.42,7.23,7.23,0,0,1-4.844,1.713h-.082a7.071,7.071,0,0,1-4.926-1.944,9.661,9.661,0,0,1-2.389-3.872,16.577,16.577,0,0,1-.906-5.074v-.675H103.777c-2.455,0-4.448,3.015-4.448,6.722,0,3.723,1.994,6.755,4.448,6.755h56.51c2.966,0,6.145-3.015,6.145-6.755,0-.1-.016-.181-.016-.28.033-.379.082-.741.082-1.137V319.09C166.5,315.68,166.053,312.78,162.511,311.594Z" transform="translate(-98.9 -286.7)"/>
      </g>
      <g id="Group_250" data-name="Group 250" transform="translate(0.362)">
        <path id="Path_2116" data-name="Path 2116" class="cls-2" d="M280.645,488.685v6.079s.231,7.628-5.964,7.628c-5.931,0-5.981-7.628-5.981-7.628V487.4Z" transform="translate(-241.087 -437.117)"/>
        <path id="Path_2117" data-name="Path 2117" class="cls-2" d="M140.657,218.2V196.547h22.571s5.058.61,5.058-7.381c0-7.167-5.058-6.969-5.058-6.969h-57.07s-5.058-.2-5.058,6.969c0,7.991,5.058,7.381,5.058,7.381h22.571v20.017Z" transform="translate(-101.1 -182.197)"/>
      </g>
    </g>
    <g id="Group_263" data-name="Group 263" transform="translate(-370)">
      <g id="Group_252" data-name="Group 252" transform="translate(488.885 570.739)">
        <path id="Path_2118" data-name="Path 2118" d="M100.849,635.312V631.16H99.3v-.56h3.74v.56h-1.565v4.168h-.626Z" transform="translate(-99.3 -630.583)"/>
        <path id="Path_2119" data-name="Path 2119" d="M125.9,635.228V630.5h.626v1.944h2.455V630.5h.626v4.728h-.626V633h-2.455v2.224Z" transform="translate(-121.518 -630.5)"/>
        <path id="Path_2120" data-name="Path 2120" d="M151.6,635.228l1.812-4.728h.675l1.928,4.728h-.708l-.544-1.433h-1.977l-.527,1.433Zm1.367-1.944h1.6l-.494-1.3c-.148-.4-.264-.725-.329-.972a5.713,5.713,0,0,1-.264.906Z" transform="translate(-142.983 -630.5)"/>
        <path id="Path_2121" data-name="Path 2121" d="M182.1,635.228V630.5h.626v4.728Z" transform="translate(-168.458 -630.5)"/>
      </g>
      <g id="Group_253" data-name="Group 253" transform="translate(505.854 570.673)">
        <path id="Path_2122" data-name="Path 2122" d="M202.3,633.379l.593-.049a1.137,1.137,0,0,0,.445.824,1.544,1.544,0,0,0,.939.264,1.384,1.384,0,0,0,.873-.231.712.712,0,0,0,.3-.56.568.568,0,0,0-.28-.511,4.77,4.77,0,0,0-1.17-.4,2.336,2.336,0,0,1-1.219-.544,1.056,1.056,0,0,1-.313-.774,1.087,1.087,0,0,1,.494-.972,2.32,2.32,0,0,1,2.488.066,1.375,1.375,0,0,1,.461,1l-.593.049c-.066-.61-.445-.906-1.153-.906-.725,0-1.087.231-1.087.708a.547.547,0,0,0,.231.445,2.858,2.858,0,0,0,.906.313,8.968,8.968,0,0,1,1.021.28,1.414,1.414,0,0,1,.593.445,1.093,1.093,0,0,1,.231.725,1.2,1.2,0,0,1-.511,1.038,2.075,2.075,0,0,1-1.236.379,2.1,2.1,0,0,1-1.5-.461A1.532,1.532,0,0,1,202.3,633.379Z" transform="translate(-202.3 -630.1)"/>
        <path id="Path_2123" data-name="Path 2123" d="M232.314,630.6h.626v2.718a3.877,3.877,0,0,1-.132,1.038,1.29,1.29,0,0,1-.56.741,2.051,2.051,0,0,1-1.17.3,1.842,1.842,0,0,1-1.433-.494,2.325,2.325,0,0,1-.445-1.582V630.6h.626v2.718a3.532,3.532,0,0,0,.082.791.84.84,0,0,0,.362.527,1.292,1.292,0,0,0,.758.2,1.278,1.278,0,0,0,.972-.313,1.8,1.8,0,0,0,.3-1.2V630.6Z" transform="translate(-224.768 -630.518)"/>
        <path id="Path_2124" data-name="Path 2124" d="M258.1,635.228V630.5h.939l1.12,3.344.231.708c.066-.2.148-.445.247-.758l1.137-3.279h.84v4.728h-.593v-3.954l-1.367,3.954h-.593l-1.367-4.02v4.02H258.1Z" transform="translate(-248.907 -630.434)"/>
        <path id="Path_2125" data-name="Path 2125" d="M291.4,635.228V630.5h.939l1.12,3.344.231.708c.066-.2.148-.445.247-.758l1.137-3.279h.84v4.728h-.61v-3.954l-1.367,3.954h-.56l-1.367-4.02v4.02h-.61Z" transform="translate(-276.721 -630.434)"/>
        <path id="Path_2126" data-name="Path 2126" d="M325.5,635.228V630.5h.626v4.728Z" transform="translate(-305.202 -630.434)"/>
        <path id="Path_2127" data-name="Path 2127" d="M335.449,635.312V631.16H333.9v-.56h3.74v.56h-1.565v4.168h-.626Z" transform="translate(-312.219 -630.518)"/>
      </g>
      <g id="Group_254" data-name="Group 254" transform="translate(532.857 570.657)">
        <path id="Path_2128" data-name="Path 2128" d="M368.572,633.049v-.56h1.993v1.746a3.069,3.069,0,0,1-1.961.741,2.323,2.323,0,0,1-1.746-.659,2.361,2.361,0,0,1-.659-1.763,2.639,2.639,0,0,1,.593-1.746,2.172,2.172,0,0,1,1.779-.708,1.753,1.753,0,0,1,1.928,1.4l-.56.148a1.305,1.305,0,0,0-1.367-1.021,1.626,1.626,0,0,0-1.269.494,2,2,0,0,0-.445,1.384,1.882,1.882,0,0,0,.494,1.45,1.778,1.778,0,0,0,1.236.445,2.036,2.036,0,0,0,1.384-.494v-.857Z" transform="translate(-366.2 -630.083)"/>
        <path id="Path_2129" data-name="Path 2129" d="M398.3,635.228V630.5h2.092a4.021,4.021,0,0,1,.84.082,1.119,1.119,0,0,1,.593.412,1.258,1.258,0,0,1,.247.791q0,1.112-1.335,1.285a2.169,2.169,0,0,1,.89.857l.824,1.285h-.791l-.626-.989a5.163,5.163,0,0,0-.544-.758,1.025,1.025,0,0,0-.362-.28,1.322,1.322,0,0,0-.494-.066h-.725v2.092h-.61Zm.626-2.636h1.351c.774,0,1.17-.264,1.17-.791,0-.511-.329-.774-1.021-.774h-1.5Z" transform="translate(-393.011 -630.418)"/>
        <path id="Path_2130" data-name="Path 2130" d="M426,632.521a3.062,3.062,0,0,1,.28-1.335,2.1,2.1,0,0,1,.774-.873,2.287,2.287,0,0,1,1.2-.313,2.113,2.113,0,0,1,1.615.675,2.448,2.448,0,0,1,.626,1.779,2.375,2.375,0,0,1-.675,1.829,2.242,2.242,0,0,1-1.582.61,2.081,2.081,0,0,1-1.631-.692A2.477,2.477,0,0,1,426,632.521Zm.643,0a2.011,2.011,0,0,0,.428,1.318,1.444,1.444,0,0,0,1.17.511,1.4,1.4,0,0,0,1.219-.56,2.3,2.3,0,0,0,.412-1.351A2,2,0,0,0,429.41,631a1.5,1.5,0,0,0-1.137-.478,1.4,1.4,0,0,0-1.236.56A2.525,2.525,0,0,0,426.643,632.521Z" transform="translate(-416.148 -630)"/>
        <path id="Path_2131" data-name="Path 2131" d="M461.481,630.6h.626v2.718a3.877,3.877,0,0,1-.132,1.038,1.29,1.29,0,0,1-.56.741,1.994,1.994,0,0,1-1.153.3,1.842,1.842,0,0,1-1.433-.494,2.328,2.328,0,0,1-.428-1.582V630.6h.626v2.718a3.636,3.636,0,0,0,.066.791.839.839,0,0,0,.362.527,1.292,1.292,0,0,0,.758.2,1.278,1.278,0,0,0,.972-.313,1.8,1.8,0,0,0,.3-1.2V630.6Z" transform="translate(-443.21 -630.501)"/>
        <path id="Path_2132" data-name="Path 2132" d="M487.2,635.228V630.5h1.779a3.779,3.779,0,0,1,.956.1,1.17,1.17,0,0,1,.626.445,1.391,1.391,0,0,1,.247.824c0,.956-.593,1.433-1.763,1.433h-1.219v1.928Zm.626-2.471h1.219c.741,0,1.12-.28,1.12-.857a.878.878,0,0,0-.132-.494.641.641,0,0,0-.329-.264,2.17,2.17,0,0,0-.659-.066h-1.219Z" transform="translate(-467.265 -630.418)"/>
      </g>
    </g>
  </g>
</svg>
